<?xml version="1.0" standalone="no"?>
<!DOCTYPE svg PUBLIC "-//W3C//DTD SVG 20010904//EN"
 "http://www.w3.org/TR/2001/REC-SVG-20010904/DTD/svg10.dtd">
<svg version="1.0" xmlns="http://www.w3.org/2000/svg"
 width="300.000000pt" height="230.000000pt" viewBox="0 0 300.000000 230.000000"
 preserveAspectRatio="xMidYMid meet">
<metadata>
Created by potrace 1.10, written by Peter Selinger 2001-2011
</metadata>
<g transform="translate(0.000000,230.000000) scale(0.100000,-0.100000)"
fill="#A8D65D" stroke="none">
<path d="M1320 2104 c-25 -2 -67 -8 -95 -14 -27 -6 -60 -12 -71 -14 -78 -15
-276 -106 -376 -173 -146 -98 -181 -126 -294 -238 -88 -88 -133 -141 -168
-200 -66 -113 -139 -307 -151 -405 -3 -19 -10 -60 -17 -90 -7 -35 -12 -170
-12 -375 -1 -304 0 -322 19 -355 12 -20 39 -44 64 -57 40 -21 46 -21 79 -7 62
26 62 22 60 314 -1 172 2 293 10 345 7 44 15 96 18 115 2 19 9 53 15 75 6 22
13 51 16 64 2 13 9 33 14 43 6 11 13 30 15 43 5 28 81 183 101 205 7 8 33 40
58 71 24 31 70 80 102 109 63 56 193 146 206 142 4 -1 7 2 7 6 0 14 157 88
255 120 106 35 248 62 325 62 71 0 234 -25 335 -52 99 -25 191 -54 208 -65 6
-4 20 -9 30 -10 31 -5 263 -116 277 -132 3 -3 21 -15 40 -25 19 -11 37 -22 40
-25 3 -4 24 -19 48 -34 23 -15 70 -55 104 -88 63 -63 149 -119 182 -119 10 0
30 10 45 23 82 69 -14 226 -240 390 -160 116 -474 261 -659 306 -147 35 -202
41 -367 45 -98 2 -198 2 -223 0z m498 -43 c148 -31 296 -82 437 -150 124 -60
289 -157 335 -197 14 -12 53 -44 86 -72 34 -28 80 -78 103 -112 49 -74 53
-115 16 -150 l-25 -24 -53 26 c-28 15 -87 58 -129 97 -325 295 -896 478 -1269
406 -349 -66 -706 -314 -837 -581 -110 -222 -141 -402 -142 -806 l0 -267 -26
-20 c-32 -25 -66 -27 -105 -4 -33 20 -45 47 -54 123 -7 58 -7 474 0 525 2 17
6 59 10 94 13 135 79 342 149 472 110 202 368 427 641 559 104 50 159 68 320
103 11 3 115 4 230 2 171 -2 229 -6 313 -24z"/>
<path d="M1497 1528 c2 -5 -40 -8 -94 -8 -124 0 -212 -23 -346 -88 -219 -107
-352 -245 -447 -463 -21 -48 -36 -90 -34 -92 3 -2 0 -17 -6 -32 -40 -104 -61
-336 -39 -420 6 -22 12 -47 13 -55 6 -30 35 -86 53 -102 26 -23 83 -36 119
-26 57 15 59 24 57 212 -2 94 2 198 8 231 5 33 12 74 15 90 19 113 109 274
188 338 97 78 221 145 300 161 11 3 51 11 88 19 76 17 289 16 353 -1 22 -6 58
-14 80 -18 22 -3 47 -10 56 -15 9 -4 27 -10 40 -13 45 -8 231 -93 237 -108 2
-4 9 -8 15 -8 6 0 48 -25 93 -55 119 -79 126 -81 166 -58 41 24 62 64 54 107
-8 41 -81 117 -161 168 -33 20 -64 41 -70 46 -30 24 -328 146 -386 157 -9 2
-34 8 -55 14 -22 6 -69 11 -106 11 -38 0 -68 3 -68 8 0 4 -29 7 -64 7 -35 0
-62 -3 -59 -7z m350 -53 c306 -94 563 -245 597 -352 10 -32 -22 -87 -56 -95
-16 -3 -98 33 -98 45 0 4 -4 7 -9 7 -5 0 -36 17 -68 39 -122 81 -268 141 -438
182 -113 26 -323 29 -430 5 -38 -9 -81 -19 -94 -22 -42 -9 -147 -61 -209 -102
-132 -90 -217 -218 -263 -397 -21 -80 -23 -110 -22 -279 2 -222 -4 -245 -69
-246 -65 0 -105 46 -134 155 -46 170 27 504 149 688 115 171 265 286 477 362
92 33 191 42 412 39 148 -2 177 -6 255 -29z"/>
<path d="M1475 976 c-73 -15 -135 -36 -156 -53 -8 -7 -20 -13 -25 -13 -25 0
-158 -139 -213 -221 -68 -102 -86 -146 -77 -193 6 -30 16 -43 69 -85 23 -19
64 0 97 44 134 180 199 250 260 280 45 23 251 24 331 1 95 -26 192 -30 234
-10 63 30 78 100 33 151 -32 34 -157 76 -268 89 -25 2 -81 9 -125 14 -91 11
-82 12 -160 -4z m210 -20 c97 -9 254 -44 295 -66 50 -27 64 -91 30 -128 -36
-38 -61 -38 -330 4 -213 32 -307 -5 -426 -171 -57 -80 -136 -165 -153 -165
-30 0 -70 39 -77 74 -21 116 224 392 386 436 66 18 140 27 185 24 22 -2 63 -6
90 -8z"/>
</g>
</svg>
